<svg xmlns="http://www.w3.org/2000/svg" fill="none" viewBox="0 0 168 24">
  <g clip-path="url(#clip0)">
    <path fill="#000" d="M48.8247.130371H57.624C64.2641.130371 69.7433 5.34918 69.7433 12.0653 69.7433 18.7814 64.2316 24.0002 57.624 24.0002H48.8247V.130371zM55.0309 18.738H56.4196C60.1303 18.738 63.2876 16.7199 63.2876 12.0653 63.2876 7.79041 60.4667 5.38173 56.4847 5.38173H55.0309V18.738zM75.8845 19.8555L74.2353 24.0002H67.6494L76.8284.130371H83.5988L92.5934 24.0002H85.9749L84.4234 19.8555H75.8845zM80.2245 7.50831H80.1594L77.5988 15.1032H82.7525L80.2245 7.50831zM93.2656.130371H99.4718L110.842 14.7235H110.897V.130371H117.103V24.0002H110.897L99.5369 9.37449H99.4718V24.0002H93.2656V.130371zM126.098.130371H119.892V24.0002H126.098V.130371zM135.081 5.38173V9.37449H144.097V14.6258H135.081V18.738H144.477V24.0002H128.875V.130371H144.477V5.38173H135.081zM152.615 18.738H160.047V24.0002H146.409V.130371H152.615V18.738zM167.642.130371H161.436V24.0002H167.642V.130371z"/>
    <path fill="#CCC3BE" d="M13.5947 24H42.4663V0H21.0486L13.5947 24Z"/>
    <path fill="#002C52" d="M0 24H13.5949L21.0488 0H0V24Z"/>
    <path fill="#fff" d="M25.6926 14.9839L21.0488 18.445L28.5027 24.0002L25.6926 14.9839Z"/>
    <path fill="#E95228" d="M33.1897 9.396L13.5947 24L16.3723 15.0488L23.9672 9.396H33.1897Z"/>
    <path fill="#fff" d="M23.9675 9.396H8.89697L16.3726 15.0488L23.9675 9.396Z"/>
    <path fill="#E95228" d="M21.049 0L23.9676 9.39602H18.1304L21.049 0Z"/>
  </g>
  <defs>
    <clipPath id="clip0">
      <path fill="#fff" d="M0 0H167.6V24H0z"/>
    </clipPath>
  </defs>
</svg>
