<svg xmlns="http://www.w3.org/2000/svg" id="layer" x="0" y="0" version="1.1" viewBox="0 0 652 652" xml:space="preserve">
  <style>
    .st0{fill:#004387}
  </style>
  <g id="freudenberg-logo-colored">
    <path id="freudenberg" d="M554.9,281.1c5.2,0,8.7,1.2,8.7,6.4c0,5.7-4.3,7-8.2,7h-5v-13.4L554.9,281.1z M556,273.6 h-12.5c-2,0-2.8,1.3-2.8,3.2v42.8c0,1.4,1.9,1.6,4.9,1.6c3,0,4.9-0.2,4.9-1.6v-17.9h2.9c5.1,0,6.7,4.1,8.1,7.5l4.4,10.4 c0.7,1.5,2.4,1.6,5.1,1.6c3.7,0,5.3-0.2,5.3-1.4c0-0.5-0.3-1.3-1.1-3.3l-3.8-9c-2-4.7-3.1-6.4-6.8-8.5c7.1-2.3,9.2-6.9,9.2-12.3 C573.7,279,569.2,273.6,556,273.6z M419.9,319.6l-0.1-30.1l-0.2-5.3l2,4.6l2.1,4.2l11.9,22.4c1.4,2.8,2.9,5.9,7.1,5.9h4.2 c1.7,0,3.6-0.8,3.6-3.5v-42.5c0-1.4-1.9-1.6-4.4-1.6s-4.4,0.2-4.4,1.6c0,23.7,0,25.7,0.1,27.5c0.2,5-0.1,0.6,0.2,5.2h-0.1l-1.3-2.9 l-13.9-26.6c-1.8-3.5-2.9-4.9-6.8-4.9h-5.3c-2.3,0-3.5,1.5-3.5,3.5v42.5c0,1.4,1.9,1.6,4.4,1.6S419.9,321.1,419.9,319.6 L419.9,319.6z M316.2,275.2c0-1.4-1.9-1.6-4.9-1.6c-3,0-4.9,0.2-4.9,1.6v27.6c0,5.6-2.2,11.2-9.7,11.2s-9.8-5.6-9.8-11.2v-27.6 c0-1.4-1.9-1.6-4.9-1.6c-3,0-4.9,0.2-4.9,1.6v28.6c0,13.6,8.9,18.2,19.5,18.2c10.6,0,19.4-4.6,19.4-18.2V275.2z M530.3,313.6h-16.7 v-13.4h13.9c1.8,0,2-1,2-3.7s-0.2-3.7-2-3.7h-13.9v-11.5h16.6c1.8,0,2-1.1,2-3.8s-0.2-3.8-2-3.8h-23.4c-2,0-2.9,1.4-2.9,3.2v41.5 c0,2,0.9,2.9,2.9,2.9h23.5c1.8,0,2-1,2-3.8S532.1,313.6,530.3,313.6L530.3,313.6z M401,313.6h-16.6v-13.4h13.9c1.8,0,2-1,2-3.7 s-0.2-3.7-2-3.7h-13.9v-11.5h16.6c1.8,0,2-1.1,2-3.8s-0.2-3.8-2-3.8h-23.5c-2,0-2.9,1.4-2.9,3.2v41.5c0,2,1,2.9,2.9,2.9H401 c1.8,0,2-1,2-3.8S402.8,313.6,401,313.6L401,313.6z M267.9,313.6h-16.7v-13.4h13.9c1.8,0,2-1,2-3.7s-0.2-3.7-2-3.7h-13.9v-11.5 h16.6c1.8,0,2-1.1,2-3.8s-0.2-3.8-2-3.8h-23.4c-2,0-2.9,1.4-2.9,3.2v41.5c0,2,1,2.9,2.9,2.9h23.5c1.8,0,2-1,2-3.8 S269.7,313.6,267.9,313.6L267.9,313.6z M188,302.2c1.8,0,2-1,2-3.9c0-2.9-0.2-3.9-2-3.9h-14.1v-12.8h15c1.8,0,2-1,2-4s-0.2-4-2-4 h-21.5c-2.2,0-3.1,1.1-3.1,3.2v42.8c0,1.4,1.9,1.6,4.9,1.6s4.9-0.2,4.9-1.6v-17.4H188z M605.7,272.8c-12.7,0-24.8,7.2-24.8,24.8 c0,13.1,6.8,24.4,24.5,24.4c4.3,0,8.5-0.7,12.5-2.2c2.9-1,3-1.4,3-3.9v-15.5c0-1.8-1.5-2-4.8-2c-2.7,0-4.9,0-4.9,1.9v12.5 c-1.4,0.9-3.3,1.2-5.5,1.2c-11,0-14.9-9-14.9-16.9c0-11,7.2-16.4,15.6-16.4c5.7,0,9.4,2.5,11.2,3.5c0.8,0.5,1.2,0.7,1.5,0.7 c1,0,1.4-1.3,1.4-4.1c0-1.6,0.1-2.8-1.1-3.9C617.8,274.9,612.6,272.8,605.7,272.8z M475.8,281c5,0,7.5,1.3,7.5,5.8 c0,4.9-3,6.3-7.1,6.3h-5.1V281H475.8z M476.2,273.6h-12.1c-1.9,0-2.8,1.1-2.8,3.2v41.5c0,2,0.9,2.9,2.8,2.9h12.8 c13.6,0,19-6.5,19-14.2c0-7.4-5-10.8-9.5-11.4c3.3-1.4,6.8-4.1,6.8-9.9C493.1,278.1,487.3,273.6,476.2,273.6z M476.5,300.4 c7,0,9.2,2.3,9.2,6.6c0,5.6-4,6.9-7.9,6.9h-6.8v-13.5H476.5z M341.4,273.6h-12.3c-1.9,0-2.9,1.3-2.9,3.2v41.5c0,2,1,2.9,2.9,2.9 h11.5c19,0,25.3-9.8,25.3-24C365.9,283.2,359.8,273.6,341.4,273.6z M340.9,281.2c9.2,0,15.1,4.4,15.1,16.2 c0,11.4-5.4,16.2-14.9,16.2H336v-32.4H340.9z M212.9,281.1c5.2,0,8.8,1.2,8.8,6.4c0,5.7-4.3,7-8.2,7h-5v-13.4L212.9,281.1z M214,273.6h-12.5c-2,0-2.8,1.3-2.8,3.2v42.8c0,1.4,1.9,1.6,4.9,1.6s4.9-0.2,4.9-1.6v-17.9h3c4.9,0,6.5,4.1,7.9,7.5l4.4,10.4 c0.7,1.5,2.4,1.6,5,1.6c3.7,0,5.3-0.2,5.3-1.4c0-0.5-0.3-1.3-1.1-3.3l-3.8-9c-2-4.7-3.1-6.4-6.8-8.5c7-2.3,9.2-7,9.2-12.3 C231.8,279,227.2,273.6,214,273.6L214,273.6z" class="st0"/>
    <path id="claim" d="M165.4,347.4h3.1v22.9h-3.1V347.4z M193.9,370.3v-22.9h-3.1v14.9c0,1.1,0,2.1,0.1,3h-0.1 c-0.5-0.9-1.1-1.8-2.5-3.7l-10.7-14.2h-3.2v22.9h3.1V355c0-1.2,0-2.1-0.1-2.9h0.1c0.7,1.2,1.5,2.3,2.4,3.4l11.2,14.8L193.9,370.3z M219.4,370.3v-22.9h-3.1v14.9c0,1.1,0,2.1,0.1,3h-0.1c-0.5-0.9-1.1-1.8-2.5-3.7l-10.7-14.2h-3.2v22.9h3.1V355c0-1.2,0-2.1-0.1-2.9 h0.1c0.7,1.2,1.5,2.3,2.4,3.4l11.2,14.8L219.4,370.3z M227.4,350.5c-2,2.1-3.2,5.1-3.2,8.5c0,3.6,1.3,6.7,3.6,8.8 c2,1.8,4.7,2.8,7.9,2.8c3.3,0,6-1.1,8.1-3.1c2.1-2.1,3.4-5.1,3.4-8.6c0-3.2-1-6-2.9-8.1c-2-2.3-5-3.6-8.6-3.6 C232.5,347.2,229.5,348.3,227.4,350.5L227.4,350.5z M235.6,350c5.2,0,8.1,3.7,8.1,9c0,5.5-3.2,9-8.1,9c-4.9,0-8.1-3.5-8.1-9 S230.6,350,235.6,350z M269.5,347.4h-3.2l-6.1,14.5c-0.6,1.3-1,2.5-1.4,3.7h-0.1c-0.4-1.2-0.9-2.5-1.3-3.7l-5.6-14.5h-3.3l9.1,23 h1.9L269.5,347.4z M287.5,370.3l-8.9-23h-2l-8.8,23h3.1l2.2-6h8.9l2.3,6H287.5z M280.8,361.6H274l2.5-7c0.4-0.9,0.7-1.9,0.9-2.8h0 c0.2,1,0.5,1.9,0.9,2.8L280.8,361.6z M303.9,347.4h-17v2.7h6.6v20.2h3.1v-20.2h6.4L303.9,347.4z M307.4,370.3h3.1v-22.9h-3.1V370.3 z M335.9,370.3v-22.9h-3.1v14.9c0,1.1,0,2.1,0.1,3h-0.1c-0.4-0.9-1.1-1.8-2.5-3.7l-10.7-14.2h-3.2v22.9h3.1V355 c0-1.2,0-2.1-0.1-2.9h0.1c0.7,1.2,1.5,2.3,2.4,3.4l11.2,14.8L335.9,370.3z M352.1,370.6c2.8,0,5.5-0.7,8-1.9v-9.6H357v8 c-0.8,0.5-2.2,0.8-4.1,0.8c-5.5,0-8.9-3.5-8.9-9.1c0-5.1,3.1-8.9,8.9-8.9c2.6,0,4.9,0.9,6.4,1.7l0-3.1c-2.1-0.9-4.3-1.3-6.5-1.3 c-7.3,0-12.2,4.9-12.2,12C340.7,365.9,345.2,370.7,352.1,370.6L352.1,370.6z M389.6,347.4h-17v2.7h6.6v20.2h3.1v-20.2h6.4 L389.6,347.4z M393.4,350.5c-2.1,2.1-3.2,5.1-3.2,8.5c0,3.6,1.3,6.7,3.6,8.8c2,1.8,4.7,2.8,7.9,2.8c3.3,0,6-1.1,8.1-3.1 c2.1-2.1,3.4-5.1,3.4-8.6c0-3.2-1-6-2.9-8.1c-2-2.3-5-3.6-8.6-3.6C398.5,347.2,395.6,348.4,393.4,350.5L393.4,350.5z M401.6,350 c5.2,0,8.1,3.7,8.1,9c0,5.5-3.2,9-8.1,9c-4.9,0-8.1-3.5-8.1-9C393.5,353.5,396.7,350,401.6,350z M427.9,370.6c2.8,0,5.5-0.7,8-1.9 v-9.6h-3.1v8c-0.8,0.5-2.2,0.8-4.1,0.8c-5.5,0-8.9-3.5-8.9-9.1c0-5.1,3.1-8.9,8.9-8.9c2.6,0,4.9,0.9,6.4,1.7l0-3.1 c-2.1-0.9-4.3-1.3-6.5-1.3c-7.3,0-12.2,4.9-12.2,12C416.5,365.9,421.1,370.7,427.9,370.6L427.9,370.6z M453.4,370.3v-2.8h-8.7v-7.6 h7.5v-2.7h-7.5v-7.1h7.6l1-2.7h-11.7v22.9L453.4,370.3z M473.4,347.4h-17v2.7h6.6v20.2h3.1v-20.2h6.4L473.4,347.4z M495.1,370.3 v-22.9H492v9.9h-12.1v-9.9h-3.1v22.9h3.1V360H492v10.3L495.1,370.3z M512.9,370.3v-2.8h-8.7v-7.6h7.5v-2.7h-7.5v-7.1h7.6l1-2.7H501 v22.9L512.9,370.3z M533.5,370.3c-3.6-5.9-6.2-10-7-10.5v0c2.3-0.9,4.4-2.9,4.4-6.1c0-3.5-2.2-6.3-7.8-6.3h-5.2v22.9h3.1v-9.5h2.3 c0.9,0.2,2.9,3.6,6.6,9.5L533.5,370.3z M523.2,350.2c3.3,0,4.5,1.8,4.5,3.9c0,2.3-1.9,4.2-4.4,4.2H521v-8.1L523.2,350.2 L523.2,350.2z" class="st0"/>
    <g id="icon">
      <linearGradient id="Shape1_1_" x1="28.8" x2="30.2" y1="724.9" y2="722.7" gradientTransform="matrix(28.1472 0 0 -17.3216 -736 12844)" gradientUnits="userSpaceOnUse">
        <stop offset="0" stop-color="#048"/>
        <stop offset=".1" stop-color="#048"/>
        <stop offset=".6" stop-color="#00a5e1"/>
        <stop offset="1" stop-color="#00a5e1"/>
      </linearGradient>
      <path id="Shape1" fill="url(#Shape1_1_)" d="M67.2,291.6L67.2,291.6c2.2-0.5,4.4-0.8,6.7-0.8c8.9,0,15.6,6.3,19.9,11.3l10.3,11.9 c4.7,5.3,8.4,6.8,12.8,6.8c1.6,0,3.4-0.2,3.8-0.4v-0.1c-0.5-0.2-4.1-1.3-9.3-7.5l-7.7-9.3c-6.3-7.5-13.9-15.6-25.1-15.6 C71.7,287.9,67.9,291.1,67.2,291.6"/>
      <linearGradient id="Shape2_1_" x1="28.9" x2="30.5" y1="720" y2="717.7" gradientTransform="matrix(20.526 0 0 -14.1512 -521 10481)" gradientUnits="userSpaceOnUse">
        <stop offset="0" stop-color="#048"/>
        <stop offset=".1" stop-color="#048"/>
        <stop offset=".6" stop-color="#00a5e1"/>
        <stop offset="1" stop-color="#00a5e1"/>
      </linearGradient>
      <path id="Shape2" fill="url(#Shape2_1_)" d="M68.9,294.7L68.9,294.7c5.4,0.8,9.5,3,14.9,9.2l9.6,11.2c3,3.5,7.1,5.7,11.6,5.7 c1,0,1.9-0.1,2.9-0.3v-0.1c-2.6-0.8-5.5-2-8.6-5.6l-10-11.6c-3.8-4.5-10-9.2-16.2-9.2C71.4,293.9,69.5,294.3,68.9,294.7"/>
      <linearGradient id="Shape3_1_" x1="15.3" x2="16.6" y1="736.9" y2="733.7" gradientTransform="matrix(40.4772 -19.2182 -48.2388 -16.126 34940 12467)" gradientUnits="userSpaceOnUse">
        <stop offset="0" stop-color="#bcdcf5"/>
        <stop offset=".1" stop-color="#5cc0eb"/>
        <stop offset=".2" stop-color="#00a5e1"/>
        <stop offset=".2" stop-color="#009dda"/>
        <stop offset=".3" stop-color="#005c9e"/>
        <stop offset=".6" stop-color="#004387"/>
        <stop offset="1" stop-color="#004387"/>
      </linearGradient>
      <path id="Shape3" fill="url(#Shape3_1_)" d="M26.3,273.2c-3.2,0-5.3,1.6-5.3,5.4v36.8c0,3,2.2,5.4,5.2,5.4h3.5c7.9,0,13.6-8.3,21.2-17.3 c8.3-9.8,17.2-19,29.7-19c12.3,0,21.4,9,29.9,19c8.1,9.5,13.2,17.3,20.9,17.3h3c4,0,6.1-2.5,6.1-5.4v-36.8c0-3.9-2.3-5.4-5.3-5.4 H26.3z"/>
    </g>
  </g>
</svg>
