<svg xmlns="http://www.w3.org/2000/svg" viewBox="0 0 283.5 64.8">
  <path d="M27.3 31.4c-.4 1.3-.7 2.8-.7 3.8 0 3.9 3 6.4 9.3 6.4 8.3 0 11.5-3 13.3-9.4l5.4-18.5h-7.7L41.5 32c-.6 2-1.8 2.9-4.2 2.9-2.2 0-3-1.1-2.5-3l5.4-18.3h-7.7L27.3 31.4zM131.2 41.2L149.4 41.2 151.3 34.7 140.8 34.7 142 30.5 151.3 30.5 153.1 24.2 143.9 24.2 145.2 19.9 155.7 19.9 157.5 13.7 139.3 13.7zM250.4 13.3c-7.5 0-13.1.9-16.8 14.8-.6 2.4-1 4.5-1 6.3 0 4.4 2.4 7.2 10 7.2 1.9 0 4.4-.3 6.1-.9l1.9-6.4c0 0-2 .5-5.2.5-3.5 0-4.4-1.1-4.4-2.9 0-1.1.3-2.3.7-3.7 1.9-7.4 4-8.2 7.8-8.2 3.2 0 5 .5 5 .5l2-6.6C255.2 13.7 252.3 13.3 250.4 13.3zM1.3 41c1.1.3 3.8.6 6 .6 9.8 0 13.8-2.7 16-10.2l5.3-17.7h-7.7l-4.6 15.8C16 30 15.7 31 15.3 31.8c-1.3 2.3-3.8 2.9-6.7 2.9-2.9 0-5.4-.4-5.4-.4L1.3 41zM192.9 41.2h7.6l2.7-9.2h2.1l2.3 9.2h8.3l-3.1-10.5c2.3-.7 5-1.5 6.8-7.6.5-1.6.7-3.3.7-4.2 0-3.3-2-5.3-6.9-5.3H201L192.9 41.2zM204.9 26.2l1.8-6.2h3.5c1.3 0 2 .7 2 1.8 0 2.6-1.3 4.4-3.9 4.4H204.9zM103.8 25.3H93.5L92 30.4h3.3l-1.3 4.4c0 0-1.1.2-2.4.2-2.8 0-3.2-1.2-3.2-3 0-1.1.3-2.4.6-3.8 1.9-7.4 4.1-8.3 7.9-8.3 4 0 7.1.8 7.1.8l2-6.4c-1.1-.4-4.6-1-8.1-1-7.5 0-13.1.8-16.8 14.7-.6 2.4-.9 4.4-.9 6.3 0 4.4 2.6 7.3 10.1 7.3 3.6 0 7.4-.6 9.2-1.2L103.8 25.3zM161.6 13.7L169.3 13.7 161.2 41.2 153.5 41.2zM59.1 13.7h6.5l4 14.7h.1c0 0 .6-2.4 1.2-4.4l3-10.2h7.6l-8.1 27.5h-6.5l-4.1-14.5h-.1c0 0-.6 2.2-1.2 4.5l-3 10h-7.6L59.1 13.7zM173.9 13.7h6.5l4 14.7h.1c0 0 .6-2.4 1.2-4.4l3-10.2h7.6l-8.1 27.5h-6.5l-4.1-14.5h-.1c0 0-.6 2.2-1.2 4.5l-3 10h-7.6L173.9 13.7zM226.3 13.7L234 13.7 225.9 41.2 218.1 41.2zM111.6 13.7L119.3 13.7 116.1 24.4 123.6 24.4 126.8 13.7 134.5 13.7 126.4 41.2 118.7 41.2 121.8 30.7 114.2 30.7 111.1 41.2 103.4 41.2zM260.5 13.7L268.2 13.7 265 24.4 272.6 24.4 275.8 13.7 283.5 13.7 275.3 41.2 267.6 41.2 270.7 30.7 263.2 30.7 260.1 41.2 252.3 41.2z"/>
  <path fill="#e30613" d="M29.6,11.3L17.9,0L0,11.3h10.1L4,31.8c0,0,2,0.3,4.8,0.3c2.2,0,3.5-0.7,4.1-1.7c0.3-0.6,0.4-0.8,0.7-1.8 l5.2-17.4H29.6z"/>
</svg>
