<svg xmlns="http://www.w3.org/2000/svg" fill="none" viewBox="0 0 134 32">
  <g clip-path="url(#clip0)">
    <path fill="#1A3D84" d="M0 31.4913H21.2401V24.5554H8.73344V0.500265H0V31.4913ZM46.6433 12.2777H34.9592V7.26656H47.3641V0.500265H26.2173V31.4913H48.0424V24.691H34.9592V18.9846H46.6433V12.2777ZM68.3752 32C78.3635 32 84.638 25.6577 84.638 15.6778C84.638 7.40223 79.3301 0 68.8585 0C58.8617 0 52.6889 7.17329 52.6889 16.1865C52.6889 24.7843 58.2427 32 68.3328 32H68.3752ZM68.6804 25.4202C64.4409 25.4202 61.8972 21.5114 61.8972 16C61.8972 10.6243 64.4409 6.57976 68.6804 6.57976C72.92 6.57976 75.3874 10.6243 75.3874 15.9576C75.3874 21.5623 72.9285 25.4287 68.6804 25.4287V25.4202ZM97.7467 31.4913V23.8601C97.7467 18.849 97.6534 14.16 97.4075 9.97986H97.6025C99.2475 13.8124 101.087 17.5517 103.105 21.1977L108.608 31.4997H117.783V0.500265H109.821V7.8177C109.795 12.1759 110.016 16.5427 110.499 20.8755H110.355C108.854 17.1701 107.158 13.5495 105.268 10.0307L100.053 0.500265H89.7848V31.4913H97.7467ZM125.236 0.500265V31.4913H133.969V0.500265H125.236Z"/>
  </g>
  <defs>
    <clipPath id="clip0">
      <path fill="#fff" d="M0 0H134V32H0z"/>
    </clipPath>
  </defs>
</svg>
