<svg xmlns="http://www.w3.org/2000/svg" version="1.0" viewBox="0 0 1033.8 145.9">
  <path fill-rule="evenodd" d="M 704.4494,668.2263 L 807.92757,668.21402 C 840.36424,668.21402 852.60853,690.13409 852.60853,709.0345 C 852.60853,741.2318 823.57817,747.00718 823.57817,747.00718 L 861.20102,807.02574 L 785.52572,807.02574 L 769.26136,767.1535 L 769.29203,807.02574 L 631.65871,807.02574 L 615.39435,767.1535 L 615.42504,807.02574 L 550.58239,807.02574 L 550.58239,668.2263 L 654.06056,668.21402 C 686.49723,668.21402 698.77221,690.13409 698.77221,709.0345 C 698.77221,741.2318 669.71119,747.00718 669.71119,747.00718 L 704.4494,802.39808 L 704.4494,668.2263 z M 187.76437,694.64515 L 187.76437,720.93203 L 197.12405,720.93203 C 202.06474,720.93203 205.74723,717.91238 207.46574,714.37104 C 208.84668,711.55393 209.82866,706.04554 207.343,700.91459 C 204.36631,694.68812 198.56638,694.70651 197.18543,694.63901 L 187.76437,694.64515 z M 121.78631,668.21402 C 121.78631,668.21402 216.11961,668.24164 232.2612,668.22323 C 263.04075,668.18947 270.31368,691.31556 270.34437,704.89169 C 270.43642,729.27597 253.37421,735.26002 253.37421,735.26002 C 253.37421,735.26002 271.75599,742.19539 271.75599,768.19075 C 271.75599,808.68593 234.65485,807.01654 228.88561,807.01654 L 121.78631,807.01654 L 121.78631,668.21402 z M 544.13804,807.03495 L 544.13804,775.15372 L 514.12568,775.15372 L 514.12568,749.85192 L 543.83115,749.85192 L 543.83115,722.24238 L 514.12568,722.24238 L 514.12568,695.51053 L 544.13804,695.51053 L 544.13804,668.22937 L 445.4778,668.22937 L 445.4778,807.03495 L 544.13804,807.03495 z M 368.14535,807.03495 L 436.73187,807.03495 L 436.73187,668.22937 L 368.14535,668.22937 L 368.14535,720.81236 L 345.89693,720.81236 L 345.89693,668.22937 L 275.74537,668.22937 L 275.74537,807.03495 L 345.89693,807.03495 L 345.89693,748.69806 L 368.14535,748.69806 L 368.14535,807.03495 z M 115.64882,807.03495 L 115.64882,775.15372 L 85.605769,775.15372 L 85.605769,749.85192 L 115.34193,749.85192 L 115.34193,722.24238 L 85.605769,722.24238 L 85.605769,695.51053 L 115.64882,695.51053 L 115.64882,668.22937 L 16.95789,668.22937 L 16.95789,807.03495 L 115.64882,807.03495 z M -59.239117,668.22937 L 8.1812744,668.22937 L 8.1812744,807.03495 L -59.239117,807.03495 L -59.239117,668.22937 z M -65.959672,807.03495 L -65.959672,768.71857 L -95.972008,768.71857 L -95.972008,668.22937 L -165.54054,668.22937 L -165.54054,807.03495 L -65.959672,807.03495 z M 614.19753,694.63901 L 614.19753,727.5237 L 622.42177,727.5237 C 631.32115,727.5237 634.48196,723.30419 636.44595,718.87597 C 637.98032,715.35919 639.02371,709.00074 636.44595,702.4858 C 635.03433,698.95367 631.32115,694.63901 622.42177,694.63901 L 614.19753,694.63901 z M 768.06454,694.63901 L 768.06454,727.5237 L 776.28878,727.5237 C 785.18816,727.5237 788.34897,723.30419 790.31296,718.87597 C 791.84733,715.35919 792.8907,709.00074 790.31296,702.4858 C 788.90134,698.95367 785.18816,694.63901 776.28878,694.63901 L 768.06454,694.63901 z M 187.73368,750.7173 L 187.73368,779.14003 L 197.18543,779.14003 C 202.12613,779.14003 207.18954,775.8749 209.06147,772.04509 C 210.53449,769.00089 211.51647,763.069 208.90804,757.49616 C 205.47106,750.14958 197.89124,750.80323 197.15474,750.71423 L 187.73368,750.7173" class="ps00" transform="translate(169 -665)"/>
</svg>
