<svg xmlns="http://www.w3.org/2000/svg" fill="none" viewBox="0 0 199 40">
  <g clip-path="url(#clip0)">
    <path fill="#888B8D" d="M49.9587 11.7515H60.4415L64.3035 26.3722H64.5518C64.7449 25.1584 64.9104 23.8618 65.2691 22.6756L68.4415 11.7515H78.8139L83.4208 39.5584H73.5725L72.1932 24.3308H72.0001C71.807 25.2411 71.6415 26.2066 71.338 27.0894L67.2829 39.5584H61.3242L57.6829 27.779C57.3794 26.5928 57.1311 25.4894 57.0484 24.3032H56.7173C56.6346 25.4066 56.5794 26.5653 56.4691 27.6687L55.2828 39.5584H45.4346L49.9587 11.7515Z"/>
    <path fill="#888B8D" d="M91.7794 39.5586H80.9932L90.7587 11.7517H102.041L112.055 39.5586H101.241L100.304 36.0827H92.607L91.7794 39.5586ZM98.5104 29.4896L97.3242 24.5793C97.0207 23.3931 96.8276 22.1793 96.6621 20.9931H96.3035L94.4552 29.4896H98.5104ZM139.724 23.1724C139.641 27.7241 139.641 31.5034 136.331 35.062C133.352 38.262 128.772 40 124.414 40C115.862 40 108.938 34.7586 108.938 25.8206C108.938 16.7448 115.669 11.2827 124.497 11.2827C129.379 11.2827 136.055 13.6827 138.262 18.4275L128.745 21.9034C127.972 20.4965 126.51 19.7517 124.883 19.7517C121.241 19.7517 119.228 22.8413 119.228 26.2069C119.228 29.2689 121.159 32.1379 124.469 32.1379C126.069 32.1379 128.11 31.3931 128.607 29.7103H124V23.1724H139.724ZM140.497 11.7517H150.29L159.448 27.1724H159.752C159.338 24.8551 158.897 22.4551 158.897 20.0827V11.7517H168.635V39.5586H158.897L149.931 24.9379H149.628C149.959 26.8689 150.262 28.662 150.262 30.5103V39.5586H140.524V11.7517H140.497Z"/>
    <path fill="#888B8D" d="M178.4 39.5584H167.614L177.352 11.7515H188.634L198.621 39.5584H187.835L186.897 36.0825H179.2L178.4 39.5584ZM185.131 29.4894L183.945 24.579C183.641 23.3928 183.476 22.179 183.283 20.9928H182.897L181.048 29.4894H185.131Z"/>
    <path fill="#DA291C" d="M22.7035 0C19.8622 0 17.5725 2.28965 17.5725 5.10345C17.5725 7.91724 19.8622 10.2069 22.7035 10.2069C25.5449 10.2069 27.8346 7.91724 27.8346 5.10345C27.8346 2.28965 25.5449 0 22.7035 0Z"/>
    <path fill="#0D0105" d="M29.8759 39.5864H40.4414L30.2621 11.8071H22.5103L21.1035 15.6692L29.8759 39.5864ZM0 39.5864H15.7517L7.86207 18.1244L0 39.5864ZM17.5448 39.5864H28.1103L17.931 11.8071H10.2069L8.77241 15.6692"/>
  </g>
  <defs>
    <clipPath id="clip0">
      <path fill="#fff" d="M0 0H198.6V40H0z"/>
    </clipPath>
  </defs>
</svg>
