<svg xmlns="http://www.w3.org/2000/svg" fill="none" viewBox="0 0 195 40">
  <g clip-path="url(#clip0)">
    <path fill="#000" fill-rule="evenodd" d="M75.5374 37.1955H74.8173V39.2141C74.5336 39.3014 74.2281 39.3559 73.8789 39.3559C72.635 39.3559 71.904 38.5812 71.904 37.2501C71.904 36.1481 72.4932 35.1333 73.9226 35.1333C74.3808 35.1333 74.9045 35.2315 75.3519 35.4061V34.6969C74.9045 34.5769 74.4572 34.5114 73.988 34.5114C72.1004 34.5114 71.1184 35.7007 71.1184 37.3592C71.1184 38.9849 72.1004 39.9888 73.7698 39.9888C74.359 39.9888 75.0028 39.8796 75.5265 39.6832C75.5374 39.6832 75.5374 37.1955 75.5374 37.1955ZM81.964 39.9124H81.0584L79.4436 37.6101H79.0508V39.9124H78.3197V34.5878C78.3197 34.5878 79.018 34.5441 79.7163 34.5441C80.8293 34.5441 81.593 34.9806 81.593 35.9953C81.593 36.9227 80.9493 37.3919 80.1964 37.501C80.1964 37.501 80.4256 37.7738 80.6329 38.0684L81.964 39.9124ZM79.0617 35.1552V37.0537C79.0617 37.0537 79.3672 37.0646 79.6291 37.0646C80.4037 37.0646 80.8402 36.7045 80.8402 36.0935C80.8402 35.4825 80.4256 35.1442 79.6618 35.1442C79.3672 35.1442 79.0617 35.1552 79.0617 35.1552ZM88.8053 37.1737C88.8053 38.9959 87.6378 39.9997 86.2739 39.9997C84.7245 39.9997 83.8844 38.9631 83.8844 37.3265C83.8844 35.5043 85.0518 34.5005 86.4157 34.5005C87.9651 34.5005 88.8053 35.537 88.8053 37.1737ZM88.0415 37.2828C88.0415 36.0062 87.4741 35.1442 86.3394 35.1442C85.3792 35.1442 84.6372 35.8753 84.6372 37.2173C84.6372 38.4939 85.2046 39.3559 86.3394 39.3559C87.2995 39.3559 88.0415 38.6249 88.0415 37.2828ZM95.4174 34.5769H94.7082V37.9266C94.7082 39.0068 94.2717 39.3886 93.3443 39.3886C92.2641 39.3886 92.024 38.7995 92.024 38.0575V34.5769H91.293V38.1121C91.293 39.0613 91.6203 39.9888 93.2897 39.9888C94.6754 39.9888 95.4174 39.2686 95.4174 37.872V34.5769ZM99.1053 39.9124H98.3743V34.5769C98.3743 34.5769 99.1271 34.5441 99.7709 34.5441C101.157 34.5441 101.789 35.2861 101.789 36.2026C101.789 37.2828 100.982 38.0793 99.6509 38.0793C99.3781 38.0793 99.0944 38.0575 99.0944 38.0575L99.1053 39.9124ZM99.1053 35.1552V37.4465C99.1053 37.4465 99.4108 37.4901 99.7272 37.4901C100.611 37.4901 101.058 36.9773 101.058 36.3008C101.058 35.6134 100.644 35.1333 99.6945 35.1333C99.4108 35.1442 99.1053 35.1552 99.1053 35.1552ZM111.042 39.9124H110.136L108.522 37.5992H108.129V39.9124H107.398V34.5878C107.398 34.5878 108.096 34.5441 108.794 34.5441C109.907 34.5441 110.671 34.9806 110.671 35.9953C110.671 36.9227 110.027 37.3919 109.274 37.501C109.274 37.501 109.504 37.7738 109.711 38.0684L111.042 39.9124ZM108.14 35.1552V37.0537C108.14 37.0537 108.445 37.0646 108.707 37.0646C109.482 37.0646 109.918 36.7045 109.918 36.0935C109.918 35.4825 109.504 35.1442 108.74 35.1442C108.445 35.1442 108.14 35.1552 108.14 35.1552ZM117.501 34.5769H116.792V37.9266C116.792 39.0068 116.356 39.3886 115.428 39.3886C114.348 39.3886 114.108 38.7995 114.108 38.0575V34.5769H113.377V38.1121C113.377 39.0613 113.715 39.9888 115.374 39.9888C116.77 39.9888 117.501 39.2686 117.501 37.872V34.5769ZM122.859 34.5987C122.575 34.5441 122.248 34.5114 121.942 34.5114C120.753 34.5114 120.065 35.1115 120.065 35.9626C120.065 37.6865 122.51 37.2501 122.51 38.483C122.51 39.105 122.04 39.3559 121.386 39.3559C120.96 39.3559 120.546 39.2795 120.142 39.1268V39.836C120.469 39.9233 120.906 39.9778 121.342 39.9778C122.586 39.9778 123.262 39.3123 123.262 38.4176C123.262 36.65 120.807 37.0646 120.807 35.8971C120.807 35.3952 121.178 35.1006 121.888 35.1006C122.193 35.1006 122.564 35.1661 122.848 35.2424C122.859 35.2534 122.859 34.5987 122.859 34.5987Z" clip-rule="evenodd"/>
    <path fill="#4C5356" d="M190.104 20.0752L183.884 10.0589C182.771 8.26945 182.149 7.10196 181.571 5.78172H181.517C181.658 7.76754 181.811 11.4882 181.811 14.6742V20.0643H178.112V0.326187H182.455L188.292 9.68789C189.187 11.0736 189.984 12.5248 190.671 14.0196H190.726C190.584 11.8592 190.431 8.36765 190.431 5.12706V0.326187H194.13V20.0752H190.104ZM160.917 20.0752V0.326187H172.853V3.51222H164.725V8.40038H172.21V11.4446H164.725V16.8019H172.941V20.0752H160.917ZM155.046 19.1369C153.082 19.9225 150.649 20.3698 148.271 20.3698C141.757 20.3698 138.265 16.5073 138.265 10.6262C138.265 4.36328 142.106 0.0315878 149.264 0.0315878C150.933 0.0315878 152.788 0.293454 154.25 0.708074V4.42875C152.635 3.75226 150.726 3.43584 149.023 3.43584C144.332 3.43584 142.39 6.53459 142.39 10.2225C142.39 14.3797 144.594 16.9547 148.696 16.9547C149.634 16.9547 150.453 16.8346 151.217 16.6055V9.72062H155.035L155.046 19.1369ZM131.904 20.0752L130.551 15.8636H123.099L121.724 20.0752H117.883L124.517 0.315276H129.471L136.127 20.0752H131.904ZM127.649 6.67643C127.343 5.70535 127.081 4.71244 126.863 3.71953H126.798C126.59 4.65788 126.328 5.68352 126.034 6.6437L123.983 12.8521H129.7L127.649 6.67643ZM112.068 20.0752H107.343L104.321 9.27327C104.059 8.21489 103.819 6.87283 103.677 5.67261H103.622C103.448 6.92739 103.273 8.21489 103.001 9.27327L100.033 20.0752H95.2755L90.3328 0.326187H94.4135L97.054 11.1282C97.4359 12.9721 97.6978 14.5542 97.9051 16.049H97.9596C98.1669 14.5542 98.4615 12.9176 98.898 11.1936L101.888 0.337098H105.706L108.783 11.3136C109.198 12.7757 109.58 14.4779 109.809 16.06H109.864C110.071 14.5324 110.3 12.9285 110.627 11.3791L113.235 0.348009H116.989C116.999 0.326187 112.068 20.0752 112.068 20.0752ZM86.3721 3.71953C85.281 3.3922 83.8734 3.16307 82.7059 3.16307C80.5346 3.16307 79.4217 4.04686 79.4217 5.44348C79.4217 9.04414 88.0196 7.78936 88.0196 14.2815C88.0196 17.8276 85.3246 20.4026 80.4801 20.4026C78.8325 20.4026 77.1631 20.1953 75.8756 19.8461V16.2236C77.1631 16.7255 79.0398 17.1074 80.6328 17.1074C82.575 17.1074 83.9498 16.3764 83.9498 14.6524C83.9498 10.8445 75.4719 12.252 75.4719 5.81446C75.4719 2.38838 78.2324 0.0206767 82.9569 0.0206767C84.048 0.0206767 85.3355 0.162521 86.3939 0.369831V3.71953H86.3721ZM68.5325 20.0752L61.6039 10.5935V20.0752H57.796V0.326187H61.6039V9.27327L68.2924 0.315276H72.8096L65.5101 9.74244L73.2897 20.0752H68.5325ZM43.0987 20.0752V0.326187H46.9176V16.7801H54.1408V20.0861H43.0987V20.0752ZM29.078 20.4026C23.1206 20.4026 19.9782 16.7692 19.9782 10.5717C19.9782 3.71953 24.4408 0.00976562 29.689 0.00976562C35.6465 0.00976562 38.7889 3.64315 38.7889 9.84064C38.7889 16.6819 34.3262 20.4026 29.078 20.4026ZM29.3617 3.42493C26.252 3.42493 24.048 5.77081 24.048 10.1025C24.048 14.3469 25.8047 16.9765 29.3617 16.9765C32.4714 16.9765 34.6972 14.6306 34.6972 10.2771C34.7081 6.0545 32.9405 3.42493 29.3617 3.42493ZM11.6203 20.0752H6.65576L0 0.326187H4.22259L8.04146 12.1538C8.42335 13.474 8.89253 15.1652 9.20895 16.54H9.27441C9.60175 15.198 10.0382 13.5286 10.4746 12.0883L14.3153 0.326187H18.2433L11.6203 20.0752Z"/>
  </g>
  <defs>
    <clipPath id="clip0">
      <path fill="#fff" d="M0 0H194.1V40H0z"/>
    </clipPath>
  </defs>
</svg>
