<svg xmlns="http://www.w3.org/2000/svg" viewBox="0 0 602.3 94.3">
  <path fill="#ed1c24" d="M 0,0 44.242,0 41.63,-1.359 41.625,-10.514 37.24,-18.708 38.912,-21.53 0,0" transform="matrix(4.38003 0 0 -4.38003 0 0)"/>
  <path fill="#231f20" d="m 0,0 -0.052,0 -2.388,-4.427 4.743,0 L 0,0 m -3.835,-6.994 -1.047,-2.368 -5.371,0 6.476,12.606 7.228,0 6.649,-12.606 -5.399,0 -1.029,2.368 -7.507,0" transform="matrix(4.38003 0 0 -4.38003 466 14)"/>
  <path fill="#231f20" d="m 0,0 -0.052,0 -2.388,-4.427 4.743,0 L 0,0 m -3.835,-6.994 -1.047,-2.368 -5.373,0 6.476,12.606 7.229,0 6.649,-12.606 -5.399,0 -1.029,2.368 -7.506,0" transform="matrix(4.38003 0 0 -4.38003 317 14)"/>
  <path fill="#231f20" d="m 0,0 4.875,0 -5.069,-5.185 6.323,-7.421 -5.226,0 -6.589,7.407 -0.04,-1.94 0,-5.467 -3.931,0 0,12.606 3.931,0 0,-5.199 0.04,0 L 0,0" transform="matrix(4.38003 0 0 -4.38003 552 0)"/>
  <path fill="#231f20" d="m 298.87786,244.28513 4.98988,0 0,-15.75875 -4.98988,0 0,15.75875 z" transform="translate(-463 -801) scale(3.50403)"/>
  <path fill="#231f20" d="m 0,0 0,2.898 -13.324,0 0,-2.657 7.368,0 -7.298,-6.948 0,-3.001 13.351,0 0,2.538 -7.25,0 L 0,0" transform="matrix(4.38003 0 0 -4.38003 420 13)"/>
  <path fill="#231f20" d="m 0,0 -5.104,0 -3.35,-4.442 -3.348,4.442 -5.103,0 6.427,-8.514 0,-4.132 3.954,0 0,4.132 L 0,0" transform="matrix(4.38003 0 0 -4.38003 286 0)"/>
</svg>
